<svg width="23" height="24" viewBox="0 0 23 24" fill="none" xmlns="http://www.w3.org/2000/svg">
<path d="M9.61624 4.1108L3.6548 8.88509C2.98382 9.41844 2.5537 10.5454 2.69994 11.3884L3.84406 18.2358C4.05051 19.4574 5.22043 20.4467 6.45916 20.4467H16.0938C17.3239 20.4467 18.5025 19.4488 18.7089 18.2358L19.853 11.3884C19.9907 10.5454 19.5605 9.41844 18.8982 8.88509L12.9367 4.11941C12.0163 3.37961 10.5281 3.3796 9.61624 4.1108Z" stroke="black" stroke-width="1.40766" stroke-linecap="round" stroke-linejoin="round"/>
<path d="M11.2766 15.0185C12.4643 15.0185 13.4272 14.0556 13.4272 12.8679C13.4272 11.6801 12.4643 10.7173 11.2766 10.7173C10.0888 10.7173 9.12598 11.6801 9.12598 12.8679C9.12598 14.0556 10.0888 15.0185 11.2766 15.0185Z" stroke="black" stroke-width="1.40766" stroke-linecap="round" stroke-linejoin="round"/>
</svg>
