<svg width="22" height="23" viewBox="0 0 22 23" fill="none" xmlns="http://www.w3.org/2000/svg">
<path d="M10.7389 8.89423H12.8837V5.67709H16.1009V3.53233H12.8837V0.315186H10.7389V3.53233H7.5218V5.67709H10.7389V8.89423ZM6.44942 18.5457C5.2698 18.5457 4.31538 19.5108 4.31538 20.6904C4.31538 21.87 5.2698 22.8352 6.44942 22.8352C7.62904 22.8352 8.59418 21.87 8.59418 20.6904C8.59418 19.5108 7.62904 18.5457 6.44942 18.5457ZM17.1732 18.5457C15.9936 18.5457 15.0392 19.5108 15.0392 20.6904C15.0392 21.87 15.9936 22.8352 17.1732 22.8352C18.3529 22.8352 19.318 21.87 19.318 20.6904C19.318 19.5108 18.3529 18.5457 17.1732 18.5457ZM6.63173 15.0604L6.6639 14.9317L7.62904 13.1838H15.6183C16.4226 13.1838 17.1303 12.7441 17.4949 12.0792L21.6343 4.56181L19.7684 3.53233H19.7577L18.578 5.67709L15.6183 11.039H8.09016L7.95075 10.7495L5.54862 5.67709L4.52986 3.53233L3.52182 1.38757H0.0151367V3.53233H2.1599L6.02047 11.6717L4.57276 14.299C4.40117 14.5993 4.30466 14.9532 4.30466 15.3285C4.30466 16.5081 5.2698 17.4733 6.44942 17.4733H19.318V15.3285H6.89982C6.76041 15.3285 6.63173 15.2106 6.63173 15.0604Z" fill="black"/>
</svg>
