<svg width="17" height="15" viewBox="0 0 17 15" fill="none" xmlns="http://www.w3.org/2000/svg">
<path d="M16.3321 5.13C15.9055 4.13195 15.2869 3.2252 14.5107 2.46C13.7364 1.69295 12.8189 1.08166 11.8089 0.66C10.7597 0.22125 9.64788 0 8.5 0C7.35212 0 6.24029 0.22125 5.19107 0.66C4.18114 1.08166 3.26359 1.69295 2.48929 2.46C1.71311 3.2252 1.09453 4.13195 0.667857 5.13C0.223884 6.16688 0 7.26563 0 8.4C0 10.8881 1.10614 13.2319 3.03382 14.8331L3.06607 14.8594C3.17612 14.9494 3.31462 15 3.45692 15H13.545C13.6873 15 13.8258 14.9494 13.9358 14.8594L13.9681 14.8331C15.8939 13.2319 17 10.8881 17 8.4C17 7.26563 16.7742 6.16688 16.3321 5.13ZM13.2319 13.575H3.76808C3.03495 12.9217 2.449 12.1234 2.04827 11.2319C1.64753 10.3404 1.44096 9.37553 1.44196 8.4C1.44196 6.53625 2.17623 4.785 3.51004 3.46875C4.84386 2.15063 6.61596 1.425 8.5 1.425C10.3859 1.425 12.158 2.15063 13.49 3.46875C14.8238 4.78688 15.558 6.53813 15.558 8.4C15.558 10.38 14.7137 12.2531 13.2319 13.575ZM10.6155 5.80313C10.587 5.77521 10.5485 5.75955 10.5083 5.75955C10.4682 5.75955 10.4296 5.77521 10.4011 5.80313L8.79788 7.3875C8.44308 7.29375 8.05034 7.38375 7.77143 7.65938C7.67264 7.75682 7.59427 7.87255 7.5408 7.99996C7.48732 8.12737 7.4598 8.26394 7.4598 8.40187C7.4598 8.53981 7.48732 8.67639 7.5408 8.80379C7.59427 8.9312 7.67264 9.04694 7.77143 9.14438C7.87003 9.242 7.98714 9.31945 8.11607 9.37229C8.24499 9.42514 8.38319 9.45234 8.52277 9.45234C8.66234 9.45234 8.80055 9.42514 8.92947 9.37229C9.05839 9.31945 9.17551 9.242 9.27411 9.14438C9.40625 9.01418 9.50127 8.85183 9.54958 8.67372C9.59788 8.49561 9.59776 8.30805 9.54922 8.13L11.1525 6.54563C11.2113 6.4875 11.2113 6.39188 11.1525 6.33375L10.6155 5.80313V5.80313ZM8.08259 3.9H8.91741C9.00089 3.9 9.0692 3.8325 9.0692 3.75V2.25C9.0692 2.1675 9.00089 2.1 8.91741 2.1H8.08259C7.99911 2.1 7.9308 2.1675 7.9308 2.25V3.75C7.9308 3.8325 7.99911 3.9 8.08259 3.9ZM13.0156 7.9875V8.8125C13.0156 8.895 13.0839 8.9625 13.1674 8.9625H14.6853C14.7688 8.9625 14.8371 8.895 14.8371 8.8125V7.9875C14.8371 7.905 14.7688 7.8375 14.6853 7.8375H13.1674C13.0839 7.8375 13.0156 7.905 13.0156 7.9875ZM13.2566 4.29L12.6665 3.70688C12.638 3.67896 12.5995 3.6633 12.5593 3.6633C12.5192 3.6633 12.4806 3.67896 12.4521 3.70688L11.3782 4.76812C11.35 4.79632 11.3341 4.83439 11.3341 4.87406C11.3341 4.91374 11.35 4.95181 11.3782 4.98L11.9683 5.56313C12.0271 5.62125 12.1239 5.62125 12.1827 5.56313L13.2566 4.50188C13.3154 4.44375 13.3154 4.34812 13.2566 4.29ZM4.55547 3.70688C4.52694 3.67896 4.48842 3.6633 4.44827 3.6633C4.40812 3.6633 4.3696 3.67896 4.34107 3.70688L3.751 4.29C3.72276 4.31819 3.70691 4.35626 3.70691 4.39594C3.70691 4.43561 3.72276 4.47368 3.751 4.50188L4.82489 5.56313C4.88371 5.62125 4.98047 5.62125 5.03929 5.56313L5.62935 4.98C5.68817 4.92188 5.68817 4.82625 5.62935 4.76812L4.55547 3.70688ZM3.7567 7.8375H2.23884C2.15536 7.8375 2.08705 7.905 2.08705 7.9875V8.8125C2.08705 8.895 2.15536 8.9625 2.23884 8.9625H3.7567C3.84018 8.9625 3.90848 8.895 3.90848 8.8125V7.9875C3.90848 7.905 3.84018 7.8375 3.7567 7.8375Z" fill="black"/>
</svg>
